<svg width="440" height="79" viewBox="0 0 440 79" fill="none" xmlns="http://www.w3.org/2000/svg">
<path fill-rule="evenodd" clip-rule="evenodd" d="M439.507 11.4925C439.507 13.9407 437.523 15.9253 435.075 15.9253C432.626 15.9253 430.642 13.9407 430.642 11.4925C430.642 9.04432 432.626 7.05968 435.075 7.05968C437.523 7.05968 439.507 9.04432 439.507 11.4925ZM440 11.4925C440 14.2127 437.795 16.4179 435.075 16.4179C432.354 16.4179 430.149 14.2127 430.149 11.4925C430.149 8.7723 432.354 6.56714 435.075 6.56714C437.795 6.56714 440 8.7723 440 11.4925ZM434.8 12.2254L436.187 14.4477H437.196L435.738 12.186C436.2 12.1072 436.552 11.9286 436.794 11.6501C437.041 11.3717 437.164 11.0144 437.164 10.5784C437.164 10.0688 436.999 9.65896 436.668 9.34899C436.342 9.03902 435.861 8.88404 435.226 8.88404H433.263V14.4477H434.162V12.2254H434.8ZM435.155 11.5871H434.162V9.65634H435.155C435.528 9.65634 435.801 9.74302 435.974 9.9164C436.153 10.0845 436.242 10.3209 436.242 10.6257C436.242 11.2666 435.88 11.5871 435.155 11.5871Z" fill="#1A3967"/>
<path d="M131.636 15.3625C146.242 15.4024 158.058 26.8695 158.049 40.9953C158.022 47.8116 155.195 54.3379 150.192 59.1389C145.189 63.9397 138.419 66.6226 131.371 66.5959C116.766 66.4942 105.001 54.9765 105.075 40.8508C105.148 26.7253 117.031 15.3229 131.636 15.3625ZM276.66 46.884V16.8215C276.66 16.3675 277.041 15.9992 277.51 15.9992H284.813C285.019 16.0035 285.217 16.0835 285.366 16.2239C285.522 16.3721 285.611 16.5755 285.611 16.7873V65.2698C285.611 65.4878 285.521 65.6976 285.362 65.8518C285.202 66.0057 284.986 66.0919 284.761 66.092H278.308V65.9748L257.112 30.5608V65.2698C257.112 65.4907 257.019 65.703 256.856 65.8576C256.693 66.0121 256.472 66.0965 256.244 66.092H248.889C248.429 66.0919 248.057 65.7318 248.057 65.2873V16.9719C248.067 16.432 248.522 15.9992 249.08 15.9992H258.066L276.66 46.884ZM164.727 16.0159H185.177C185.177 16.0159 199.592 16.5194 199.592 31.2317C199.592 45.8957 185.479 46.6604 185.386 46.6653H175.065V65.22C175.056 65.6609 174.688 66.0157 174.232 66.0246H164.553C164.065 66.0246 163.668 65.6416 163.668 65.1692V16.9719C163.662 16.7048 163.775 16.4483 163.977 16.2659C164.179 16.0833 164.452 15.9919 164.727 16.0159ZM240.355 15.966C240.827 15.966 241.213 16.3309 241.223 16.7873V23.8332C241.223 24.0497 241.133 24.2579 240.973 24.4094C240.813 24.5609 240.596 24.6434 240.372 24.6389H217.06C216.604 24.6478 216.236 25.0036 216.227 25.4446V34.9397C216.227 35.3842 216.6 35.7444 217.06 35.7444H232.463C232.685 35.7398 232.9 35.8239 233.057 35.9758C233.214 36.1278 233.3 36.3352 233.295 36.55V43.6291C233.295 43.8412 233.207 44.0442 233.05 44.1926C232.894 44.3408 232.682 44.4226 232.463 44.4182H217.06C216.604 44.4271 216.236 44.7819 216.227 45.2229V56.5471C216.237 56.9851 216.607 57.3353 217.06 57.3352H240.372C240.835 57.3351 241.214 57.6934 241.223 58.1409V65.22C241.223 65.4363 241.133 65.6437 240.973 65.7951C240.813 65.9467 240.596 66.0291 240.372 66.0246H205.941C205.481 66.0245 205.109 65.6646 205.109 65.22V16.7707C205.109 16.5543 205.199 16.347 205.359 16.1955C205.519 16.0442 205.735 15.9615 205.958 15.966H240.355ZM131.209 26.8205C123.13 26.8419 116.592 33.1817 116.592 40.9953C116.606 44.7712 118.172 48.3872 120.944 51.0461C123.716 53.7048 127.467 55.1889 131.37 55.1711C139.449 55.1064 145.951 48.7315 145.907 40.9182C145.862 33.1047 139.288 26.7991 131.209 26.8205ZM175.308 23.4817C175.308 23.4817 174.787 23.3975 174.787 24.0686V39.0491H182.263C184.338 39.0489 186.32 38.2169 187.737 36.7512C189.153 35.2855 189.879 33.3175 189.74 31.3157C189.939 29.2982 189.234 27.2946 187.805 25.8127C186.376 24.331 184.358 23.5132 182.263 23.5657L175.308 23.4817Z" fill="#ED7F22"/>
<path d="M415.249 46.8176V16.7551C415.249 16.3012 415.63 15.933 416.099 15.9329H423.402C423.608 15.9371 423.806 16.0172 423.954 16.1575C424.111 16.3058 424.2 16.5099 424.199 16.7219V65.2034C424.199 65.6573 423.819 66.0255 423.35 66.0256H416.897V65.9085L395.631 30.4944V65.2034C395.631 65.6574 395.25 66.0256 394.781 66.0256H387.408C387.189 66.0256 386.98 65.9406 386.826 65.7893C386.673 65.6379 386.589 65.4328 386.594 65.221V17.0071C386.589 16.721 386.704 16.4448 386.913 16.2424C387.122 16.0402 387.408 15.9284 387.703 15.9329H396.655L415.249 46.8176ZM344.946 16.0003H365.414C365.478 16.0026 379.811 16.5364 379.811 31.2161C379.811 45.9283 365.605 46.6497 365.605 46.6497H355.198V65.2034C355.198 65.6481 354.824 66.009 354.364 66.009H344.773C344.284 66.009 343.888 65.626 343.888 65.1536V16.9563C343.882 16.689 343.994 16.4318 344.196 16.2493C344.397 16.0668 344.67 15.9764 344.946 16.0003ZM301.373 16.0003C301.72 15.9995 302.031 16.2064 302.154 16.5198L314.383 48.1926L326.525 16.5198C326.658 16.2068 326.973 16.002 327.323 16.0003H335.666C335.943 15.9941 336.205 16.1214 336.365 16.3401C336.525 16.5586 336.562 16.8398 336.464 17.0901L317.852 65.4221H317.921C317.787 65.7444 317.465 65.956 317.106 65.9583H311.642C311.289 65.9492 310.975 65.7389 310.844 65.4221L292.232 17.0901C292.134 16.8397 292.171 16.5586 292.331 16.3401C292.491 16.1216 292.753 15.9942 293.03 16.0003H301.373ZM355.527 23.4651C355.511 23.4627 355.006 23.3924 355.006 24.053V39.0335H362.483C364.559 39.033 366.542 38.2015 367.961 36.7366C369.381 35.2716 370.11 33.3036 369.976 31.3001C370.17 29.2809 369.462 27.2773 368.03 25.7961C366.598 24.3151 364.579 23.4972 362.483 23.5491L355.527 23.4651Z" fill="#1A3967"/>
<path d="M52.5372 38.6819C52.5665 32.4175 47.6098 27.1235 41.0017 26.3613C34.3937 25.5992 28.225 29.6102 26.6456 35.6958C25.0662 41.7814 28.5759 48.0164 34.8134 50.206L29.7621 75.5224H49.1342L44.1716 50.156C49.2074 48.3199 52.5293 43.7637 52.5372 38.6819Z" fill="#1A3967"/>
<path d="M78.806 38.5158C78.3622 17.1164 60.8515 0 39.403 0C17.9544 0 0.44375 17.1164 2.05974e-08 38.5158C-0.000450484 52.3863 7.38914 65.2111 19.402 72.1883L21.9327 55.4531C18.0459 51.2072 15.8914 45.664 15.8928 39.9132C16.2341 27.2006 26.6593 17.072 39.403 17.072C52.1466 17.072 62.5719 27.2006 62.9132 39.9132C62.9153 45.7099 60.7286 51.2945 56.7889 55.5541L59.3027 72.2388C71.3804 65.2883 78.8174 52.4289 78.806 38.5158Z" fill="#ED7F22"/>
</svg>
